<svg id="Layer_1" data-name="Layer 1" xmlns="http://www.w3.org/2000/svg" viewBox="0 0 224.01 169.34"><defs><style>.cls-1{fill:#231f20;}.cls-2{fill:#ed1c24;}.cls-3{fill:#009444;}.cls-4{fill:#ffde17;}</style></defs><path class="cls-1" d="M193.69,127.47" transform="translate(-149.04 -222.23)"/><ellipse class="cls-2" cx="203.28" cy="50.29" rx="20.73" ry="19.63"/><ellipse class="cls-3" cx="203.28" cy="147.81" rx="20.73" ry="19.63"/><ellipse class="cls-4" cx="203.28" cy="99.05" rx="20.73" ry="19.63"/><path class="cls-1" d="M296.69,243.61H247.18V225.36H367.69v18.25H317.94v148H296.69Z" transform="translate(-149.04 -222.23)"/><path class="cls-1" d="M149,225.68A224.86,224.86,0,0,1,188,222.23c26.3,0,45,7.15,57.44,20.71,12.62,13.57,20,32.8,20,59.68,0,27.13-7.16,49.32-20.41,64.61-13.26,15.53-35.14,23.92-62.7,23.92a253.14,253.14,0,0,1-33.24-2Zm18.31,147c4.62,1,11.36,1.24,18.51,1.24,39.13,0,60.38-25.65,60.38-70.53.21-39.21-18.72-64.12-57.43-64.12a89.39,89.39,0,0,0-21.46,2.22Z" transform="translate(-149.04 -222.23)"/></svg>